<?xml version="1.0" encoding="UTF-8"?>
<svg xmlns="http://www.w3.org/2000/svg" xmlns:xlink="http://www.w3.org/1999/xlink" width="250px" height="77px" viewBox="0 0 250 77" version="1.1">
<g id="surface1">
<path style=" stroke:none;fill-rule:nonzero;fill:rgb(100%,0%,0%);fill-opacity:1;" d="M 44.585938 0 L 44.597656 0 C 45.078125 3.632812 45.441406 7.277344 45.898438 10.914062 C 44.75 10.46875 43.609375 9.996094 42.46875 9.53125 C 40.480469 14.890625 38.503906 20.25 36.484375 25.597656 C 36.285156 26.113281 36.09375 26.636719 35.90625 27.15625 C 35.710938 27.691406 35.515625 28.230469 35.3125 28.765625 C 34.824219 28.230469 34.339844 27.699219 33.855469 27.160156 C 33.382812 26.636719 32.902344 26.117188 32.410156 25.609375 C 31.773438 24.953125 31.152344 24.285156 30.535156 23.613281 C 30.300781 24.277344 30.0625 24.9375 29.820312 25.597656 C 28.566406 25.597656 27.304688 25.601562 26.050781 25.601562 C 27.226562 22.5 28.398438 19.398438 29.539062 16.285156 C 31.195312 18.09375 32.808594 19.945312 34.457031 21.757812 C 36.101562 17.253906 37.835938 12.789062 39.484375 8.292969 C 38.363281 7.824219 37.234375 7.359375 36.117188 6.871094 C 38.929688 4.570312 41.71875 2.230469 44.585938 0 Z M 44.585938 0 "/>
<path style=" stroke:none;fill-rule:nonzero;fill:rgb(100%,0%,0%);fill-opacity:1;" d="M 25.480469 27.152344 L 29.285156 27.152344 C 28.828125 28.410156 28.382812 29.671875 27.925781 30.933594 C 27.003906 30.941406 26.085938 30.949219 25.164062 30.957031 C 25.96875 31.292969 26.789062 31.609375 27.550781 32.03125 C 26.148438 35.988281 24.683594 39.921875 23.359375 43.902344 C 23.519531 41.304688 23.339844 38.574219 22.066406 36.242188 C 23.195312 33.210938 24.332031 30.183594 25.480469 27.152344 Z M 25.480469 27.152344 "/>
<path style=" stroke:none;fill-rule:nonzero;fill:rgb(100%,0%,0%);fill-opacity:1;" d="M 16.015625 52.34375 C 18.4375 51.609375 20.550781 50.015625 21.957031 47.914062 C 20.714844 50.96875 19.726562 54.121094 18.582031 57.210938 C 17.113281 57.210938 15.648438 57.207031 14.183594 57.207031 C 14.792969 55.585938 15.398438 53.964844 16.015625 52.34375 Z M 16.015625 52.34375 "/>
<path style=" stroke:none;fill-rule:nonzero;fill:rgb(100%,0%,0%);fill-opacity:1;" d="M 13.597656 58.765625 C 15.074219 58.765625 16.554688 58.765625 18.03125 58.769531 C 17.660156 59.800781 17.292969 60.835938 16.925781 61.871094 C 15.429688 61.871094 13.933594 61.867188 12.433594 61.867188 C 12.820312 60.832031 13.210938 59.796875 13.597656 58.765625 Z M 13.597656 58.765625 "/>
<path style=" stroke:none;fill-rule:nonzero;fill:rgb(100%,0%,0%);fill-opacity:1;" d="M 11.847656 63.425781 C 13.355469 63.425781 14.867188 63.425781 16.375 63.429688 C 16.050781 64.328125 15.726562 65.234375 15.410156 66.136719 C 13.882812 66.136719 12.351562 66.136719 10.828125 66.136719 C 11.167969 65.230469 11.507812 64.328125 11.847656 63.425781 Z M 11.847656 63.425781 "/>
<path style=" stroke:none;fill-rule:nonzero;fill:rgb(47.843137%,15.294118%,46.27451%);fill-opacity:1;" d="M 75 23.777344 C 75.121094 23.785156 75.359375 23.796875 75.480469 23.804688 C 75.617188 24.894531 75.546875 25.996094 75.554688 27.089844 C 75.554688 43.242188 75.554688 59.394531 75.554688 75.546875 C 75.578125 76.097656 75.445312 76.980469 74.738281 76.414062 C 74.605469 75.34375 74.683594 74.257812 74.671875 73.183594 C 74.671875 57.140625 74.675781 41.101562 74.667969 25.0625 C 74.804688 24.695312 74.425781 23.773438 75 23.777344 Z M 75 23.777344 "/>
<path style=" stroke:none;fill-rule:nonzero;fill:rgb(47.843137%,15.294118%,46.27451%);fill-opacity:1;" d="M 0 26.191406 C 0.113281 26.039062 0.34375 25.734375 0.460938 25.578125 C 8.988281 25.625 17.519531 25.585938 26.050781 25.601562 C 27.304688 25.601562 28.566406 25.597656 29.820312 25.597656 C 30.683594 25.597656 31.546875 25.601562 32.410156 25.609375 C 32.902344 26.117188 33.382812 26.636719 33.855469 27.160156 C 32.332031 27.152344 30.808594 27.152344 29.285156 27.152344 C 28.015625 27.152344 26.75 27.152344 25.480469 27.152344 C 17.875 27.15625 10.269531 27.144531 2.664062 27.160156 C 1.773438 27.160156 0.882812 27.082031 0 26.960938 Z M 0 26.191406 "/>
<path style=" stroke:none;fill-rule:nonzero;fill:rgb(47.843137%,15.294118%,46.27451%);fill-opacity:1;" d="M 35.90625 27.15625 C 36.09375 26.636719 36.285156 26.113281 36.484375 25.597656 C 44.421875 25.601562 52.359375 25.601562 60.296875 25.59375 C 60.910156 25.617188 61.894531 25.539062 61.855469 26.414062 C 61.808594 27.257812 60.902344 27.113281 60.292969 27.15625 C 52.164062 27.152344 44.035156 27.152344 35.90625 27.15625 Z M 35.90625 27.15625 "/>
<path style=" stroke:none;fill-rule:nonzero;fill:rgb(47.843137%,15.294118%,46.27451%);fill-opacity:1;" d="M 226.054688 28.957031 C 228.390625 34.164062 230.757812 39.363281 233.074219 44.578125 C 233.386719 45.234375 233.683594 45.9375 234.265625 46.40625 C 235.195312 47.074219 236.597656 47.207031 237.5 46.417969 C 238.03125 45.917969 237.953125 45.121094 237.996094 44.457031 C 237.984375 40.445312 237.980469 36.429688 237.996094 32.417969 C 237.949219 31.738281 238.054688 30.945312 237.5625 30.402344 C 237.066406 30.050781 236.472656 29.867188 235.9375 29.609375 C 238.539062 29.644531 241.136719 29.632812 243.738281 29.617188 C 243.203125 29.851562 242.640625 30.042969 242.152344 30.367188 C 241.65625 30.777344 241.71875 31.488281 241.679688 32.066406 C 241.6875 36.726562 241.691406 41.382812 241.6875 46.046875 C 243.300781 46 244.960938 46.234375 246.535156 45.800781 C 248.308594 45.246094 249.3125 43.503906 249.867188 41.839844 L 249.867188 43.664062 L 249.859375 42.804688 C 249.507812 44.238281 249.195312 45.679688 248.878906 47.121094 C 241.839844 47.140625 234.804688 47.09375 227.773438 47.144531 C 228.261719 46.832031 228.917969 46.664062 229.207031 46.101562 C 229.011719 44.734375 228.335938 43.503906 227.855469 42.222656 C 225.929688 42.222656 224.007812 42.222656 222.089844 42.222656 C 221.589844 43.507812 220.835938 44.734375 220.679688 46.125 C 220.96875 46.65625 221.613281 46.816406 222.078125 47.152344 C 220.1875 47.097656 218.300781 47.117188 216.414062 47.136719 C 217.246094 46.78125 218.308594 46.609375 218.789062 45.730469 C 219.617188 44.253906 220.164062 42.640625 220.878906 41.105469 C 222.582031 37.046875 224.527344 33.085938 226.054688 28.957031 M 222.503906 41.171875 C 224.152344 41.175781 225.796875 41.175781 227.441406 41.171875 C 226.644531 39.125 225.84375 37.078125 225.046875 35.027344 C 224.195312 37.074219 223.351562 39.125 222.503906 41.171875 Z M 222.503906 41.171875 "/>
<path style=" stroke:none;fill-rule:nonzero;fill:rgb(47.843137%,15.294118%,46.27451%);fill-opacity:1;" d="M 88.144531 29.667969 C 91.304688 29.59375 94.464844 29.628906 97.628906 29.640625 C 100.179688 29.664062 102.851562 30.484375 104.609375 32.425781 C 106.515625 34.460938 106.984375 37.460938 106.570312 40.132812 C 106.28125 42.191406 105.164062 44.125 103.476562 45.335938 C 101.699219 46.660156 99.441406 47.117188 97.265625 47.117188 C 94.214844 47.128906 91.164062 47.117188 88.117188 47.121094 C 88.621094 46.90625 89.160156 46.761719 89.628906 46.472656 C 90.25 45.996094 90.171875 45.136719 90.195312 44.449219 C 90.183594 40.320312 90.183594 36.195312 90.195312 32.066406 C 90.160156 31.464844 90.261719 30.714844 89.710938 30.296875 C 89.230469 29.992188 88.667969 29.875 88.144531 29.667969 M 93.890625 30.679688 L 93.890625 46.046875 C 95.847656 45.964844 98.011719 46.402344 99.761719 45.28125 C 101.914062 43.90625 102.648438 41.171875 102.683594 38.753906 C 102.707031 36.210938 102.179688 33.304688 100.046875 31.660156 C 98.289062 30.296875 95.949219 30.753906 93.890625 30.679688 Z M 93.890625 30.679688 "/>
<path style=" stroke:none;fill-rule:nonzero;fill:rgb(47.843137%,15.294118%,46.27451%);fill-opacity:1;" d="M 108.136719 29.667969 C 110.640625 29.597656 113.144531 29.632812 115.648438 29.632812 C 117.425781 29.683594 119.390625 29.972656 120.714844 31.273438 C 122.605469 33.21875 121.652344 37.121094 118.855469 37.601562 C 119.753906 37.796875 120.671875 38.050781 121.386719 38.664062 C 123.449219 40.25 123.636719 43.78125 121.636719 45.492188 C 120.074219 46.832031 117.921875 47.117188 115.9375 47.121094 C 113.320312 47.113281 110.699219 47.148438 108.085938 47.09375 C 108.601562 46.882812 109.164062 46.765625 109.652344 46.476562 C 110.222656 45.972656 110.15625 45.148438 110.175781 44.457031 C 110.15625 40.328125 110.164062 36.199219 110.171875 32.066406 C 110.15625 31.464844 110.175781 30.765625 109.6875 30.328125 C 109.226562 29.992188 108.648438 29.882812 108.136719 29.667969 M 113.871094 30.648438 C 113.867188 35.765625 113.871094 40.878906 113.871094 45.996094 C 115.21875 45.988281 116.777344 46.03125 117.785156 44.964844 C 118.988281 43.632812 119.007812 41.550781 118.421875 39.941406 C 117.78125 38.386719 116.023438 37.917969 114.511719 37.78125 C 115.582031 37.5625 116.835938 37.261719 117.335938 36.160156 C 117.949219 34.753906 117.9375 32.933594 117.007812 31.664062 C 116.265625 30.699219 114.957031 30.738281 113.871094 30.648438 Z M 113.871094 30.648438 "/>
<path style=" stroke:none;fill-rule:nonzero;fill:rgb(47.843137%,15.294118%,46.27451%);fill-opacity:1;" d="M 128.03125 29.84375 C 130.441406 28.726562 133.117188 29.628906 135.648438 29.554688 C 135.53125 30.828125 135.433594 32.109375 135.28125 33.382812 C 134.976562 32.378906 134.644531 31.210938 133.589844 30.757812 C 131.984375 30.011719 129.609375 30.121094 128.628906 31.796875 C 128.128906 32.582031 128.371094 33.667969 129.070312 34.253906 C 130.289062 35.320312 131.726562 36.082031 133.050781 36.996094 C 134.347656 37.882812 135.894531 38.628906 136.609375 40.113281 C 137.621094 42.332031 136.800781 45.3125 134.609375 46.492188 C 132.320312 47.757812 129.492188 47.695312 127.046875 46.949219 C 126.398438 46.675781 125.5625 46.449219 125.253906 45.761719 C 124.898438 44.324219 125.316406 42.832031 125.960938 41.542969 C 126.15625 42.632812 126.21875 43.84375 126.96875 44.734375 C 128.113281 46.316406 130.308594 46.726562 132.109375 46.230469 C 134.046875 45.84375 134.972656 43.035156 133.242188 41.820312 C 131.210938 40.140625 128.769531 39.007812 126.804688 37.238281 C 124.625 35.195312 125.328125 31.082031 128.03125 29.84375 Z M 128.03125 29.84375 "/>
<path style=" stroke:none;fill-rule:nonzero;fill:rgb(47.843137%,15.294118%,46.27451%);fill-opacity:1;" d="M 147.042969 32.882812 C 148.386719 30.960938 150.59375 29.753906 152.890625 29.441406 C 155.882812 29.023438 158.976562 29.464844 161.773438 30.585938 C 161.796875 32.117188 161.832031 33.648438 161.800781 35.179688 C 161.210938 33.769531 160.65625 32.195312 159.296875 31.34375 C 156.839844 29.746094 153.050781 29.949219 151.195312 32.382812 C 149.808594 34.183594 149.476562 36.542969 149.511719 38.753906 C 149.558594 40.839844 149.933594 43.070312 151.300781 44.722656 C 152.785156 46.550781 155.585938 46.894531 157.617188 45.839844 C 158.472656 45.355469 159.363281 44.542969 159.328125 43.472656 C 159.339844 42.242188 159.402344 41.007812 159.269531 39.785156 C 159.101562 38.953125 158.027344 39.078125 157.417969 38.769531 C 159.863281 38.742188 162.316406 38.742188 164.769531 38.769531 C 164.234375 39.046875 163.433594 39.019531 163.101562 39.566406 C 162.753906 41.144531 163.230469 42.820312 162.851562 44.382812 C 161.683594 45.804688 159.886719 46.550781 158.167969 47.058594 C 155.328125 47.742188 152.136719 47.675781 149.558594 46.167969 C 147.496094 44.976562 146.046875 42.828125 145.664062 40.476562 C 145.234375 37.90625 145.503906 35.058594 147.042969 32.882812 Z M 147.042969 32.882812 "/>
<path style=" stroke:none;fill-rule:nonzero;fill:rgb(47.843137%,15.294118%,46.27451%);fill-opacity:1;" d="M 165.304688 29.644531 C 167.882812 29.632812 170.46875 29.59375 173.050781 29.667969 C 172.429688 29.972656 171.554688 30.042969 171.234375 30.75 C 171.019531 31.269531 171.074219 31.851562 171.054688 32.402344 C 171.074219 36.949219 171.0625 41.496094 171.066406 46.042969 C 173.050781 45.9375 175.300781 46.472656 177.035156 45.226562 C 178.222656 44.425781 178.714844 43.027344 179.367188 41.824219 C 179.089844 43.609375 178.628906 45.359375 178.25 47.121094 C 173.914062 47.117188 169.578125 47.136719 165.242188 47.113281 C 165.777344 46.871094 166.402344 46.777344 166.882812 46.414062 C 167.421875 45.917969 167.34375 45.128906 167.371094 44.460938 C 167.355469 40.4375 167.355469 36.417969 167.371094 32.398438 C 167.339844 31.714844 167.4375 30.921875 166.925781 30.382812 C 166.464844 29.996094 165.832031 29.894531 165.304688 29.644531 Z M 165.304688 29.644531 "/>
<path style=" stroke:none;fill-rule:nonzero;fill:rgb(47.843137%,15.294118%,46.27451%);fill-opacity:1;" d="M 187.371094 29.605469 C 190.09375 29.050781 193.066406 29.140625 195.589844 30.410156 C 197.792969 31.515625 199.433594 33.675781 199.882812 36.109375 C 200.472656 39.148438 199.945312 42.648438 197.636719 44.867188 C 195.273438 47.222656 191.695312 47.753906 188.507812 47.351562 C 185.816406 47.050781 183.1875 45.582031 181.828125 43.179688 C 180.496094 40.789062 180.378906 37.839844 181.109375 35.242188 C 181.9375 32.371094 184.5 30.230469 187.371094 29.605469 M 188.691406 30.59375 C 186.871094 31.1875 185.710938 32.9375 185.195312 34.707031 C 184.644531 36.683594 184.597656 38.785156 184.914062 40.804688 C 185.195312 42.527344 185.910156 44.273438 187.296875 45.394531 C 189.21875 46.929688 192.324219 46.742188 193.988281 44.902344 C 195.59375 43.183594 196.039062 40.730469 196.050781 38.453125 C 196.0625 36.089844 195.609375 33.515625 193.90625 31.757812 C 192.589844 30.375 190.464844 30.015625 188.691406 30.59375 Z M 188.691406 30.59375 "/>
<path style=" stroke:none;fill-rule:nonzero;fill:rgb(47.843137%,15.294118%,46.27451%);fill-opacity:1;" d="M 201.496094 29.660156 C 204.085938 29.609375 206.679688 29.621094 209.273438 29.640625 C 211.035156 29.703125 212.988281 30.027344 214.253906 31.375 C 216.03125 33.371094 215.035156 37.09375 212.316406 37.625 C 213.320312 37.800781 214.34375 38.144531 215.085938 38.882812 C 216.949219 40.570312 216.992188 43.96875 214.996094 45.570312 C 213.472656 46.8125 211.4375 47.101562 209.539062 47.117188 C 206.84375 47.128906 204.148438 47.128906 201.453125 47.109375 C 202.003906 46.859375 202.695312 46.8125 203.171875 46.402344 C 203.675781 45.890625 203.589844 45.113281 203.621094 44.457031 C 203.605469 40.328125 203.613281 36.199219 203.617188 32.074219 C 203.597656 31.441406 203.617188 30.667969 203.046875 30.253906 C 202.558594 29.988281 202.011719 29.847656 201.496094 29.660156 M 207.320312 30.652344 C 207.316406 35.769531 207.308594 40.890625 207.324219 46.007812 C 208.703125 45.984375 210.328125 46.019531 211.3125 44.871094 C 212.445312 43.5 212.46875 41.425781 211.8125 39.832031 C 211.152344 38.371094 209.480469 37.945312 208.03125 37.78125 C 209.023438 37.539062 210.191406 37.285156 210.710938 36.289062 C 211.414062 34.902344 211.382812 33.082031 210.539062 31.765625 C 209.820312 30.714844 208.449219 30.730469 207.320312 30.652344 Z M 207.320312 30.652344 "/>
<path style=" stroke:none;fill-rule:nonzero;fill:rgb(47.843137%,15.294118%,46.27451%);fill-opacity:1;" d="M 50.660156 31.089844 C 53.679688 29.839844 56.960938 30.964844 60.09375 30.824219 C 59.933594 32.429688 59.863281 34.046875 59.589844 35.640625 C 59.265625 34.742188 59.136719 33.679688 58.390625 33.003906 C 57.097656 31.777344 55.132812 31.617188 53.46875 31.984375 C 52.082031 32.308594 50.734375 33.558594 50.847656 35.078125 C 50.90625 36.058594 51.667969 36.777344 52.410156 37.320312 C 54.835938 39.039062 57.445312 40.484375 59.820312 42.269531 C 62.824219 44.574219 62.382812 49.757812 59.316406 51.808594 C 56.894531 53.503906 53.742188 53.613281 50.917969 53.179688 C 49.523438 52.890625 47.996094 52.542969 46.976562 51.472656 C 46.382812 49.625 46.898438 47.566406 47.828125 45.914062 C 47.992188 47.324219 48.117188 48.84375 49.082031 49.964844 C 50.554688 51.960938 53.355469 52.464844 55.632812 51.820312 C 57.097656 51.421875 58.308594 50.023438 58.207031 48.453125 C 58.210938 47.25 57.25 46.378906 56.351562 45.734375 C 54.3125 44.308594 52.195312 42.996094 50.144531 41.582031 C 48.976562 40.773438 47.917969 39.695312 47.472656 38.316406 C 46.613281 35.570312 47.917969 32.1875 50.660156 31.089844 Z M 50.660156 31.089844 "/>
<path style=" stroke:none;fill-rule:nonzero;fill:rgb(47.843137%,15.294118%,46.27451%);fill-opacity:1;" d="M 0 30.933594 C 4.0625 30.949219 8.121094 30.902344 12.179688 30.953125 C 16.0625 30.992188 20.097656 32.757812 22.066406 36.242188 C 23.339844 38.574219 23.519531 41.304688 23.359375 43.902344 C 23.039062 45.289062 22.59375 46.644531 21.957031 47.914062 C 20.550781 50.015625 18.4375 51.609375 16.015625 52.34375 C 14.386719 52.804688 12.6875 52.96875 10.996094 52.957031 C 7.328125 52.953125 3.664062 52.953125 0 52.953125 L 0 52.800781 C 0.625 52.570312 1.355469 52.484375 1.859375 52.007812 C 2.4375 51.429688 2.398438 50.550781 2.429688 49.796875 C 2.410156 44.445312 2.417969 39.097656 2.425781 33.75 C 2.386719 33.097656 2.4375 32.3125 1.894531 31.84375 C 1.351562 31.410156 0.644531 31.292969 0 31.085938 Z M 7.121094 51.605469 C 9.65625 51.496094 12.480469 52.070312 14.71875 50.550781 C 17.421875 48.722656 18.308594 45.203125 18.285156 42.105469 C 18.285156 38.992188 17.546875 35.492188 14.957031 33.492188 C 12.722656 31.75 9.742188 32.359375 7.121094 32.257812 Z M 7.121094 51.605469 "/>
<path style=" stroke:none;fill-rule:nonzero;fill:rgb(47.843137%,15.294118%,46.27451%);fill-opacity:1;" d="M 25.164062 30.957031 C 26.085938 30.949219 27.003906 30.941406 27.925781 30.933594 C 30.492188 30.960938 33.058594 30.875 35.621094 30.980469 C 37.769531 31.132812 40.191406 31.671875 41.5625 33.492188 C 43.425781 36.085938 42.078125 40.378906 38.804688 40.988281 C 40.042969 41.21875 41.296875 41.617188 42.238281 42.5 C 44.695312 44.597656 44.785156 49.003906 42.1875 51.023438 C 40.164062 52.625 37.480469 52.957031 34.984375 52.957031 C 31.691406 52.941406 28.394531 52.988281 25.101562 52.925781 C 25.746094 52.679688 26.4375 52.53125 27.039062 52.175781 C 27.777344 51.640625 27.746094 50.625 27.769531 49.804688 C 27.753906 45.347656 27.753906 40.886719 27.761719 36.425781 C 27.757812 34.960938 27.839844 33.480469 27.550781 32.03125 C 26.789062 31.609375 25.96875 31.292969 25.164062 30.957031 M 32.492188 51.457031 C 34.113281 51.617188 35.960938 51.558594 37.246094 50.40625 C 38.453125 49.363281 38.75 47.660156 38.699219 46.140625 C 38.675781 44.738281 38.199219 43.242188 37.03125 42.386719 C 35.992188 41.535156 34.617188 41.402344 33.34375 41.207031 C 34.648438 40.90625 36.144531 40.5625 36.808594 39.257812 C 37.640625 37.566406 37.601562 35.394531 36.652344 33.765625 C 35.773438 32.339844 33.957031 32.265625 32.46875 32.242188 C 32.476562 38.648438 32.421875 45.054688 32.492188 51.457031 Z M 32.492188 51.457031 "/>
<path style=" stroke:none;fill-rule:nonzero;fill:rgb(47.843137%,15.294118%,46.27451%);fill-opacity:1;" d="M 0 57.484375 C 0.757812 57.242188 1.554688 57.183594 2.34375 57.195312 C 6.289062 57.226562 10.238281 57.207031 14.183594 57.207031 C 15.648438 57.207031 17.113281 57.210938 18.582031 57.210938 C 31.714844 57.207031 44.84375 57.214844 57.972656 57.207031 C 59.136719 57.230469 60.324219 57.105469 61.480469 57.320312 C 61.878906 57.640625 61.964844 58.042969 61.742188 58.53125 C 60.636719 58.929688 59.441406 58.734375 58.296875 58.773438 C 44.871094 58.757812 31.453125 58.769531 18.03125 58.769531 C 16.554688 58.765625 15.074219 58.765625 13.597656 58.765625 C 9.070312 58.675781 4.519531 58.957031 0 58.613281 Z M 0 57.484375 "/>
<path style=" stroke:none;fill-rule:nonzero;fill:rgb(47.843137%,15.294118%,46.27451%);fill-opacity:1;" d="M 110.332031 57.039062 C 113.800781 60.773438 117.222656 64.554688 120.679688 68.304688 C 120.65625 65.136719 120.730469 61.96875 120.652344 58.800781 C 120.71875 57.855469 119.628906 57.726562 118.980469 57.480469 C 120.382812 57.507812 121.785156 57.496094 123.1875 57.46875 C 122.527344 57.734375 121.476562 57.871094 121.542969 58.816406 C 121.539062 62.960938 121.390625 67.117188 121.660156 71.257812 C 118.203125 67.519531 114.78125 63.75 111.332031 60.003906 C 111.332031 62.945312 111.332031 65.894531 111.328125 68.84375 C 111.375 69.34375 111.253906 70 111.714844 70.351562 C 112.152344 70.53125 112.601562 70.6875 113.0625 70.824219 C 111.644531 70.835938 110.222656 70.839844 108.808594 70.855469 C 109.46875 70.589844 110.53125 70.445312 110.453125 69.503906 C 110.445312 65.351562 110.609375 61.1875 110.332031 57.039062 Z M 110.332031 57.039062 "/>
<path style=" stroke:none;fill-rule:nonzero;fill:rgb(47.843137%,15.294118%,46.27451%);fill-opacity:1;" d="M 160.804688 57.46875 C 163.4375 57.429688 166.105469 57.683594 168.710938 57.195312 C 168.703125 58.015625 168.710938 58.828125 168.742188 59.648438 C 168.457031 59.105469 168.398438 58.199219 167.652344 58.117188 C 166.324219 57.988281 164.988281 58.09375 163.660156 58.066406 C 163.660156 60.035156 163.660156 62.003906 163.65625 63.972656 C 164.847656 63.960938 166.046875 64.054688 167.234375 63.894531 C 167.589844 63.539062 167.707031 63.023438 167.933594 62.589844 C 167.882812 63.707031 167.878906 64.832031 167.921875 65.953125 C 167.632812 65.480469 167.628906 64.585938 166.914062 64.585938 C 165.832031 64.492188 164.742188 64.558594 163.65625 64.550781 C 163.660156 66.453125 163.660156 68.351562 163.660156 70.253906 C 164.957031 70.230469 166.273438 70.375 167.554688 70.09375 C 168.765625 69.78125 169.242188 68.492188 169.917969 67.570312 C 169.535156 68.664062 169.144531 69.75 168.761719 70.847656 C 166.109375 70.867188 163.453125 70.828125 160.796875 70.859375 C 161.457031 70.589844 162.472656 70.394531 162.421875 69.472656 C 162.492188 66.25 162.414062 63.019531 162.457031 59.796875 C 162.398438 59.203125 162.570312 58.460938 162.082031 58.015625 C 161.671875 57.785156 161.234375 57.632812 160.804688 57.46875 Z M 160.804688 57.46875 "/>
<path style=" stroke:none;fill-rule:nonzero;fill:rgb(47.843137%,15.294118%,46.27451%);fill-opacity:1;" d="M 196.613281 57.535156 C 197.832031 56.945312 199.21875 57.347656 200.5 57.429688 C 200.496094 58.265625 200.503906 59.101562 200.53125 59.9375 C 200.257812 58.972656 199.738281 57.867188 198.585938 57.808594 C 196.769531 57.351562 195.207031 59.59375 196.214844 61.160156 C 197.535156 62.832031 199.359375 64.03125 200.726562 65.667969 C 201.832031 67.292969 201.292969 69.910156 199.460938 70.765625 C 197.871094 71.484375 196.011719 71.023438 194.570312 70.171875 C 194.550781 69.234375 194.605469 68.289062 194.824219 67.375 C 195.027344 68.117188 195.074219 68.9375 195.519531 69.585938 C 196.464844 70.902344 198.652344 70.84375 199.644531 69.605469 C 200.4375 68.667969 200.402344 67.101562 199.492188 66.253906 C 198.246094 64.933594 196.808594 63.8125 195.59375 62.46875 C 194.273438 61 194.847656 58.378906 196.613281 57.535156 Z M 196.613281 57.535156 "/>
<path style=" stroke:none;fill-rule:nonzero;fill:rgb(47.843137%,15.294118%,46.27451%);fill-opacity:1;" d="M 219.753906 57.175781 C 221.660156 57.578125 223.617188 57.4375 225.554688 57.457031 C 227.230469 57.457031 228.929688 57.546875 230.578125 57.179688 C 230.570312 58 230.574219 58.824219 230.582031 59.648438 C 230.289062 59.113281 230.277344 58.183594 229.535156 58.085938 C 228.285156 57.945312 227.023438 58.042969 225.769531 58.027344 C 225.796875 61.855469 225.722656 65.691406 225.800781 69.515625 C 225.757812 70.394531 226.726562 70.570312 227.339844 70.855469 C 225.871094 70.839844 224.40625 70.835938 222.945312 70.871094 C 223.542969 70.578125 224.546875 70.441406 224.523438 69.566406 C 224.613281 65.722656 224.53125 61.875 224.558594 58.027344 C 223.226562 58.054688 221.882812 57.917969 220.558594 58.121094 C 220.050781 58.453125 219.964844 59.113281 219.71875 59.625 C 219.746094 58.804688 219.757812 57.992188 219.753906 57.175781 Z M 219.753906 57.175781 "/>
<path style=" stroke:none;fill-rule:nonzero;fill:rgb(47.843137%,15.294118%,46.27451%);fill-opacity:1;" d="M 89.160156 57.5 C 90.53125 57.5 91.90625 57.484375 93.28125 57.457031 C 92.785156 57.738281 91.808594 57.734375 91.828125 58.503906 C 91.722656 60.5 91.828125 62.5 91.785156 64.496094 C 91.773438 66.042969 91.722656 67.761719 92.722656 69.046875 C 94.238281 71.167969 97.859375 70.96875 99.210938 68.769531 C 100.117188 67.410156 99.898438 65.710938 99.921875 64.167969 C 99.882812 62.269531 99.992188 60.371094 99.878906 58.476562 C 99.882812 57.742188 98.949219 57.800781 98.492188 57.492188 C 99.757812 57.5 101.019531 57.507812 102.28125 57.484375 C 101.835938 57.789062 100.816406 57.722656 100.839844 58.476562 C 100.707031 61.210938 100.890625 63.960938 100.765625 66.703125 C 100.683594 68.558594 99.394531 70.285156 97.617188 70.835938 C 95.75 71.398438 93.492188 71.164062 92.035156 69.769531 C 91.128906 68.941406 90.636719 67.734375 90.601562 66.511719 C 90.5 63.835938 90.671875 61.148438 90.535156 58.472656 C 90.550781 57.738281 89.617188 57.796875 89.160156 57.5 Z M 89.160156 57.5 "/>
<path style=" stroke:none;fill-rule:nonzero;fill:rgb(47.843137%,15.294118%,46.27451%);fill-opacity:1;" d="M 129.964844 57.457031 C 131.4375 57.484375 132.910156 57.503906 134.382812 57.472656 C 133.746094 57.753906 132.757812 57.933594 132.824219 58.839844 C 132.777344 62.394531 132.777344 65.957031 132.824219 69.515625 C 132.777344 70.402344 133.761719 70.570312 134.386719 70.855469 C 132.914062 70.84375 131.445312 70.828125 129.972656 70.859375 C 130.574219 70.574219 131.578125 70.421875 131.554688 69.554688 C 131.613281 65.964844 131.609375 62.367188 131.554688 58.777344 C 131.589844 57.886719 130.582031 57.738281 129.964844 57.457031 Z M 129.964844 57.457031 "/>
<path style=" stroke:none;fill-rule:nonzero;fill:rgb(47.843137%,15.294118%,46.27451%);fill-opacity:1;" d="M 140.386719 57.472656 C 141.878906 57.492188 143.371094 57.507812 144.863281 57.460938 C 144.347656 57.691406 143.488281 58.0625 143.875 58.789062 C 145.121094 62.164062 146.5 65.488281 147.769531 68.851562 C 149.015625 65.90625 150.171875 62.921875 151.414062 59.972656 C 151.640625 59.390625 151.914062 58.804688 151.933594 58.164062 C 151.605469 57.882812 151.246094 57.648438 150.851562 57.46875 C 152.214844 57.511719 153.582031 57.480469 154.949219 57.460938 C 154.070312 57.722656 153.136719 58.121094 152.84375 59.074219 C 151.121094 63.136719 149.199219 67.121094 147.628906 71.246094 C 145.84375 67.105469 144.101562 62.941406 142.285156 58.8125 C 141.996094 57.984375 141.101562 57.761719 140.386719 57.472656 Z M 140.386719 57.472656 "/>
<path style=" stroke:none;fill-rule:nonzero;fill:rgb(47.843137%,15.294118%,46.27451%);fill-opacity:1;" d="M 176.785156 57.472656 C 178.726562 57.539062 180.675781 57.390625 182.617188 57.523438 C 184.171875 57.59375 185.53125 58.917969 185.625 60.480469 C 185.902344 62.402344 184.636719 64.441406 182.675781 64.785156 C 184.816406 66.746094 185.746094 70.222656 188.90625 70.871094 C 187.84375 70.835938 186.703125 70.921875 185.753906 70.355469 C 183.296875 68.863281 182.820312 65.375 180.140625 64.15625 C 181.390625 64.144531 182.949219 64.152344 183.730469 62.976562 C 184.636719 61.578125 184.414062 59.328125 182.972656 58.375 C 181.925781 57.890625 180.726562 58.117188 179.613281 58.058594 C 179.632812 61.882812 179.566406 65.707031 179.640625 69.53125 C 179.585938 70.429688 180.617188 70.574219 181.238281 70.847656 C 179.75 70.832031 178.261719 70.839844 176.777344 70.859375 C 177.414062 70.574219 178.441406 70.402344 178.371094 69.484375 C 178.417969 65.929688 178.425781 62.367188 178.371094 58.816406 C 178.410156 57.917969 177.417969 57.746094 176.785156 57.472656 Z M 176.785156 57.472656 "/>
<path style=" stroke:none;fill-rule:nonzero;fill:rgb(47.843137%,15.294118%,46.27451%);fill-opacity:1;" d="M 208.683594 57.460938 C 210.140625 57.488281 211.597656 57.484375 213.054688 57.460938 C 212.4375 57.757812 211.453125 57.921875 211.511719 58.8125 C 211.457031 62.382812 211.457031 65.960938 211.511719 69.53125 C 211.46875 70.410156 212.449219 70.570312 213.058594 70.867188 C 211.605469 70.851562 210.152344 70.832031 208.703125 70.851562 C 209.285156 70.546875 210.269531 70.414062 210.230469 69.542969 C 210.300781 65.964844 210.292969 62.371094 210.234375 58.789062 C 210.273438 57.90625 209.296875 57.753906 208.683594 57.460938 Z M 208.683594 57.460938 "/>
<path style=" stroke:none;fill-rule:nonzero;fill:rgb(47.843137%,15.294118%,46.27451%);fill-opacity:1;" d="M 235.9375 57.503906 C 237.617188 57.488281 239.292969 57.441406 240.972656 57.554688 C 240.65625 57.652344 240.023438 57.847656 239.710938 57.945312 C 240.140625 60.226562 241.695312 62.101562 242.625 64.203125 C 243.597656 62.390625 244.679688 60.628906 245.597656 58.789062 C 246.042969 58.09375 245.058594 57.6875 244.585938 57.464844 C 246.066406 57.511719 247.542969 57.484375 249.027344 57.472656 C 248.125 57.75 247.105469 58.007812 246.636719 58.921875 C 245.457031 60.933594 244.125 62.875 243.085938 64.960938 C 242.976562 66.53125 242.992188 68.113281 243.082031 69.679688 C 243.128906 70.492188 244.078125 70.554688 244.648438 70.835938 C 243.144531 70.839844 241.636719 70.835938 240.136719 70.855469 C 240.769531 70.574219 241.808594 70.46875 241.785156 69.5625 C 241.84375 68.011719 241.886719 66.441406 241.761719 64.886719 C 240.75 62.851562 239.480469 60.941406 238.355469 58.964844 C 237.910156 58.015625 236.863281 57.738281 235.9375 57.503906 Z M 235.9375 57.503906 "/>
<path style=" stroke:none;fill-rule:nonzero;fill:rgb(47.843137%,15.294118%,46.27451%);fill-opacity:1;" d="M 2.328125 61.855469 C 5.695312 61.878906 9.066406 61.867188 12.433594 61.867188 C 13.933594 61.867188 15.429688 61.871094 16.925781 61.871094 C 31.390625 61.867188 45.855469 61.878906 60.320312 61.863281 C 60.8125 61.933594 61.800781 61.765625 61.820312 62.496094 C 62.074219 63.191406 61.199219 63.480469 60.660156 63.417969 C 45.898438 63.433594 31.136719 63.414062 16.375 63.429688 C 14.867188 63.425781 13.355469 63.425781 11.847656 63.425781 C 7.898438 63.339844 3.9375 63.605469 0 63.269531 L 0 62.144531 C 0.753906 61.902344 1.542969 61.839844 2.328125 61.855469 Z M 2.328125 61.855469 "/>
<path style=" stroke:none;fill-rule:nonzero;fill:rgb(47.843137%,15.294118%,46.27451%);fill-opacity:1;" d="M 0 69.527344 C 1.203125 69.609375 2.617188 69.375 3.585938 70.265625 C 4.679688 71.207031 4.632812 73.125 3.488281 74.011719 C 2.511719 74.8125 1.167969 74.605469 0 74.6875 Z M 0.570312 74.230469 C 1.429688 74.113281 2.433594 74.257812 3.132812 73.636719 C 4.015625 72.917969 4.0625 71.425781 3.214844 70.652344 C 2.523438 69.953125 1.460938 70.101562 0.570312 70.003906 C 0.5625 71.414062 0.5625 72.824219 0.570312 74.230469 Z M 0.570312 74.230469 "/>
<path style=" stroke:none;fill-rule:nonzero;fill:rgb(47.843137%,15.294118%,46.27451%);fill-opacity:1;" d="M 8.484375 69.5625 C 9.65625 69.5625 10.828125 69.5625 11.996094 69.5625 C 11.996094 69.683594 11.992188 69.929688 11.992188 70.054688 C 11.011719 70.054688 10.03125 70.054688 9.046875 70.054688 C 9.046875 70.621094 9.046875 71.1875 9.046875 71.753906 C 10.003906 71.792969 11.0625 71.585938 11.921875 72.125 C 10.96875 72.242188 10.003906 72.234375 9.046875 72.238281 C 9.046875 72.878906 9.046875 73.519531 9.046875 74.164062 L 12.0625 74.164062 L 12.078125 74.648438 C 10.878906 74.648438 9.679688 74.648438 8.484375 74.648438 C 8.484375 72.949219 8.484375 71.253906 8.484375 69.5625 Z M 8.484375 69.5625 "/>
<path style=" stroke:none;fill-rule:nonzero;fill:rgb(47.843137%,15.294118%,46.27451%);fill-opacity:1;" d="M 16.179688 69.539062 L 16.738281 69.582031 L 16.738281 71.714844 L 19.742188 71.714844 C 19.742188 70.996094 19.742188 70.273438 19.742188 69.558594 L 20.300781 69.5625 C 20.300781 71.246094 20.300781 72.921875 20.300781 74.605469 C 20.164062 74.628906 19.894531 74.683594 19.757812 74.710938 C 19.746094 73.878906 19.738281 73.042969 19.734375 72.210938 C 18.738281 72.214844 17.738281 72.214844 16.738281 72.214844 L 16.738281 74.644531 L 16.175781 74.652344 C 16.175781 72.945312 16.167969 71.242188 16.179688 69.539062 Z M 16.179688 69.539062 "/>
<path style=" stroke:none;fill-rule:nonzero;fill:rgb(47.843137%,15.294118%,46.27451%);fill-opacity:1;" d="M 24.730469 69.554688 C 25.925781 69.675781 27.625 69.140625 28.363281 70.398438 C 28.90625 71.355469 28.132812 72.257812 27.351562 72.734375 C 27.84375 73.417969 28.527344 74.070312 28.539062 74.976562 C 27.796875 74.296875 27.292969 73.40625 26.570312 72.714844 C 26.15625 72.660156 25.738281 72.621094 25.328125 72.597656 C 25.296875 73.417969 25.386719 74.289062 24.898438 75 C 24.582031 73.199219 24.777344 71.367188 24.730469 69.554688 M 25.292969 70.011719 L 25.292969 72.242188 C 25.960938 72.210938 26.632812 72.230469 27.292969 72.105469 C 28.1875 71.851562 28.195312 70.402344 27.296875 70.140625 C 26.636719 70.007812 25.960938 70.035156 25.292969 70.011719 Z M 25.292969 70.011719 "/>
<path style=" stroke:none;fill-rule:nonzero;fill:rgb(47.843137%,15.294118%,46.27451%);fill-opacity:1;" d="M 34.207031 69.601562 C 34.351562 69.585938 34.640625 69.558594 34.789062 69.542969 C 35.511719 71.320312 36.402344 73.035156 36.953125 74.882812 C 36.304688 74.5 35.992188 73.828125 35.6875 73.183594 C 34.894531 73.179688 34.101562 73.179688 33.3125 73.183594 C 33.015625 73.824219 32.699219 74.484375 32.085938 74.894531 C 32.605469 73.058594 33.511719 71.367188 34.207031 69.601562 M 34.5 70.203125 C 34.140625 71.042969 33.785156 71.878906 33.429688 72.71875 C 34.140625 72.71875 34.855469 72.71875 35.566406 72.722656 C 35.210938 71.878906 34.859375 71.042969 34.5 70.203125 Z M 34.5 70.203125 "/>
<path style=" stroke:none;fill-rule:nonzero;fill:rgb(47.843137%,15.294118%,46.27451%);fill-opacity:1;" d="M 40.761719 69.539062 C 41.941406 69.609375 43.320312 69.363281 44.285156 70.21875 C 45.382812 71.109375 45.417969 72.960938 44.371094 73.898438 C 43.417969 74.839844 41.972656 74.613281 40.757812 74.667969 C 40.753906 72.957031 40.75 71.25 40.761719 69.539062 M 41.332031 70.007812 C 41.316406 71.414062 41.3125 72.816406 41.339844 74.21875 C 42.234375 74.121094 43.308594 74.257812 43.996094 73.539062 C 44.808594 72.761719 44.761719 71.304688 43.898438 70.585938 C 43.199219 69.964844 42.195312 70.09375 41.332031 70.007812 Z M 41.332031 70.007812 "/>
<path style=" stroke:none;fill-rule:nonzero;fill:rgb(47.843137%,15.294118%,46.27451%);fill-opacity:1;" d="M 49.171875 69.542969 L 49.738281 69.574219 C 49.777344 70.8125 49.601562 72.078125 49.871094 73.296875 C 50.25 74.542969 52.296875 74.46875 52.570312 73.191406 C 52.765625 71.988281 52.648438 70.761719 52.675781 69.546875 C 52.8125 69.550781 53.082031 69.554688 53.21875 69.558594 C 53.160156 70.886719 53.40625 72.273438 53.015625 73.5625 C 52.410156 75.113281 49.871094 75.085938 49.335938 73.496094 C 49.015625 72.207031 49.210938 70.855469 49.171875 69.542969 Z M 49.171875 69.542969 "/>
<path style=" stroke:none;fill-rule:nonzero;fill:rgb(47.843137%,15.294118%,46.27451%);fill-opacity:1;" d="M 57.617188 69.3125 C 59.214844 70.4375 60.046875 72.304688 61.300781 73.765625 C 61.300781 72.359375 61.292969 70.949219 61.3125 69.539062 C 61.445312 69.546875 61.714844 69.558594 61.851562 69.5625 C 61.851562 71.273438 61.855469 72.980469 61.839844 74.691406 C 61.699219 74.671875 61.421875 74.636719 61.28125 74.621094 C 60.230469 73.210938 59.183594 71.796875 58.128906 70.390625 C 58.125 71.808594 58.128906 73.230469 58.125 74.652344 L 57.578125 74.640625 C 57.585938 72.867188 57.542969 71.089844 57.617188 69.3125 Z M 57.617188 69.3125 "/>
</g>
</svg>
